<mxfile host="app.diagrams.net" modified="2024-05-24T14:08:47.674Z" agent="Mozilla/5.0 (Windows NT 10.0; Win64; x64) AppleWebKit/537.36 (KHTML, like Gecko) Chrome/121.0.0.0 Safari/537.36" etag="vvmWrYMI8rcy2jtPORhp" version="24.4.8" type="device" pages="2">
  <diagram name="PÃ¡gina-1" id="1hrYO-DrkxiylHKqBnbL">
    <mxGraphModel dx="1687" dy="920" grid="1" gridSize="10" guides="1" tooltips="1" connect="1" arrows="1" fold="1" page="1" pageScale="1" pageWidth="900" pageHeight="1600" math="0" shadow="0">
      <root>
        <mxCell id="0" />
        <mxCell id="1" parent="0" />
        <mxCell id="E3NQC_DEqR_pifIX_3nw-381" value="LAYOUT DE CADASTRO DE CLIENTES" style="text;strokeColor=none;fillColor=none;html=1;fontSize=24;fontStyle=1;verticalAlign=middle;align=center;" parent="1" vertex="1">
          <mxGeometry x="210" y="20" width="480" height="40" as="geometry" />
        </mxCell>
        <mxCell id="E3NQC_DEqR_pifIX_3nw-385" value="CARLOS PEREIRA&amp;nbsp;" style="text;strokeColor=none;fillColor=none;html=1;fontSize=24;fontStyle=1;verticalAlign=middle;align=center;" parent="1" vertex="1">
          <mxGeometry x="210" y="250" width="250" height="55" as="geometry" />
        </mxCell>
        <mxCell id="E3NQC_DEqR_pifIX_3nw-386" value="PEDRO VASCONCILOS" style="text;strokeColor=none;fillColor=none;html=1;fontSize=24;fontStyle=1;verticalAlign=middle;align=center;" parent="1" vertex="1">
          <mxGeometry x="220" y="452.5" width="270" height="40" as="geometry" />
        </mxCell>
        <mxCell id="E3NQC_DEqR_pifIX_3nw-388" value="AMANDAS JOSLENE" style="text;strokeColor=none;fillColor=none;html=1;fontSize=24;fontStyle=1;verticalAlign=middle;align=center;" parent="1" vertex="1">
          <mxGeometry x="210" y="660" width="280" height="40" as="geometry" />
        </mxCell>
        <mxCell id="E3NQC_DEqR_pifIX_3nw-391" value="" style="shape=image;html=1;verticalLabelPosition=bottom;verticalAlign=top;imageAspect=1;aspect=fixed;image=https://thumbs.dreamstime.com/b/%C3%ADcone-da-lupa-lente-de-aumento-do-vetor-ou-sinal-128227165.jpg;" parent="1" vertex="1">
          <mxGeometry x="60" y="90" width="61" height="61" as="geometry" />
        </mxCell>
        <mxCell id="E3NQC_DEqR_pifIX_3nw-406" value="" style="ellipse;shape=doubleEllipse;whiteSpace=wrap;html=1;aspect=fixed;" parent="1" vertex="1">
          <mxGeometry x="40" y="200" width="150" height="150" as="geometry" />
        </mxCell>
        <mxCell id="E3NQC_DEqR_pifIX_3nw-408" value="" style="shape=actor;whiteSpace=wrap;html=1;" parent="1" vertex="1">
          <mxGeometry x="80" y="250" width="70" height="90" as="geometry" />
        </mxCell>
        <mxCell id="P5UNxQXMZzQfNUnJOh3o-2" value="" style="rounded=1;whiteSpace=wrap;html=1;" vertex="1" parent="1">
          <mxGeometry x="127.5" y="100.5" width="702.5" height="40" as="geometry" />
        </mxCell>
        <mxCell id="P5UNxQXMZzQfNUnJOh3o-3" value="" style="shape=image;html=1;verticalLabelPosition=bottom;verticalAlign=top;imageAspect=0;image=data:image/png,iVBORw0KGgoAAAANSUhEUgAAAOEAAADhCAMAAAAJbSJIAAAAclBMVEX///8AAAAwMDCWlpYUFBTx8fHAwMDMzMz09PSvr6+ysrL29vbg4OA3NzdFRUX8/PxCQkJISEg9PT2goKBcXFxUVFRubm5kZGQ5OTl1dXWLi4sgICDPz8/n5+cuLi64uLiCgoKlpaWOjo4nJydPT0/Z2dmogUypAAAFpUlEQVR4nO2da3vaOBBGMcRcYsAGukASaGmT/P+/uEuDnZEv6DbSiH3e87GpJR0kWSPJtkYjAAAAAAAAAAAAAAAAAACARySfTg7VauzP4eSQ++/1z49f7E6EfPeW8bGzzb7Y/r3uRwi1vyxfGPWuWNbifH277p8wfsWF2S/L9nYFWDcXBqnF2RO7YFaVFgUoV+TKAIoTfr8s+7AowK0P1rA3VP4WeuWPeQHmm9a1zLUYRjDLjQtQVp2LWRWDNNHs/WwuuOq5nrGhTltJb/avE292M/MCzLs1yKqYK8lWC/Ofnomi3QdruBqqMs5PmRK1oFTuogd+xRNN3mYAY6I4Uqdn9abA0lDJj/bCkZ4l6jCxGI3YFZekBv1Ts4aEajfBlqJ/Q31t0nryTssedZhY3P6VV/E7KYvbOxdF1SfI21A/eTu1HWoffCZ/YazFRZNO/HGiHKjBK3yK+zqVt7lXaR1Q++Bz669sDXXL8ju5MF/fE+Srxfc6jVePwrpQdMbBNoqi8/JU+XYvj4CooVp/5lTRZjKtkDdrF3FvNOqMvttEvyDh1k/XnIQMh4cJyjP5PxvXrGQMy55QrQsVzH675iVieH+YqFnQ/1Q5ZyZhOBSqqSg1WBXOuQkY6oeJK4rg2iMaiW94L1T7RhFcudeggGHRO11qo/TBrdfCQ2zDuf1d1KeJjqIbOvTBynNGENewPFoLevXBK1ENC4NYtD0O+gpGNeyuqvXB2QevRDR0CNWODLPyeIZmfVBpoiuO9elohnP7gX7t3QevxDIUGCZuRDI0mdFzDxM34hgW9n3QL1QjRDGMH6oRYhj2bb50UQS3fIu3EQz7N1/aqH2QcRszvKFIqEYIbigTqhFCGzrM6I+cNRjc0KwPKk30yPwoQVhDl2GCtwYDG8qFaoSQhoKhGiGgoWSoRghnKD5M3AhmKBuqEUIZCodqhECGZjP6cKEaIYxhYb0BGqYPXgliGHvz5S4hDB02X7hDNUIAQ9EZfRd+wyRCNQK7ocTmy124DV1m9GGfvGY2TCVUI/AaCm2+3IXV0GFGHyhUI3AaOmy+hArVCIyGLsOE+atfzvAZOszox+FrkNGwsH9WLcSMvguXYWKhGoHJMJkZfRcew3Rm9F1YDENvvog/12b/SHO2MW+i+Z+Pau/yAYr6egbDoJsv568rrD9A0cBgqLyCajRM2PTB+n0Q51r0Nyysa9Bm82VWX+T8bqS/4cla0GaY2NVXjR2Lx2A4sxS0C9UmSRmGmNGnZTjwHr9XqJaW4bL3736h2gMYqn3QOjpJ39B38yV5Q7UPOszoUzf0X/hN3JBh8yVtQ44ZfdKGLJsvKRvybL4kbMi0qpaW4XTZcFYEPVbV0jIcwmdV7SEM7UM1wiMY+m2+PICh5+ZL+oa+my8pGC771b7w3nxJwXDU98nDGxYLvwMkYfjZb5exPCeThOHo89gv+MKw+ZKG4X99cdblxLLBm4phOGCoB4bSwFAPDKWBoR4YSgNDPTCUBoZ6YCgNDPXAUBoY6oGhNDDUA0NpYKgHhtLAUA8MpYGhHhhKA0M9MJQGhnpgKA0M9fz/DcXOXTOkOU575ZyE2Nl5ZjQnr7kfaSV3/qERzbv+7ufcCp5hacC5Lp3HJwckzyHVs2MonehZslrGTek8nsZt0pA4D1jDdwPbeqQie6bzXcix9j5jmfC53HcoyVdhvG6DwmerD1KSgl28UqKf7vgR69tGenL66amBzzWYonxgJpUxQ3mBceKZWE4Ty7YLzx+MgfNuTIvkHHU3tF/O2uxfJ3JcDlWrPP0f3LBikqXM0JeZrLjo8xHDPSJ9EEUmwXQbKksT/eL0pM8uOmOGm8w3RXot1Xcc7LB80WcakUuIgTnfvetzjsJ2EWzNYT6dHKrVWI7V+rCbphMfAwAAAAAAAAAAAAAAAAAA2PAvC11MaAQi4rQAAAAASUVORK5CYII=;" vertex="1" parent="1">
          <mxGeometry x="730" y="225" width="100" height="95" as="geometry" />
        </mxCell>
        <mxCell id="P5UNxQXMZzQfNUnJOh3o-6" value="" style="shape=image;html=1;verticalLabelPosition=bottom;verticalAlign=top;imageAspect=0;image=data:image/png,iVBORw0KGgoAAAANSUhEUgAAAOEAAADhCAMAAAAJbSJIAAAAclBMVEX///8AAAAwMDCWlpYUFBTx8fHAwMDMzMz09PSvr6+ysrL29vbg4OA3NzdFRUX8/PxCQkJISEg9PT2goKBcXFxUVFRubm5kZGQ5OTl1dXWLi4sgICDPz8/n5+cuLi64uLiCgoKlpaWOjo4nJydPT0/Z2dmogUypAAAFpUlEQVR4nO2da3vaOBBGMcRcYsAGukASaGmT/P+/uEuDnZEv6DbSiH3e87GpJR0kWSPJtkYjAAAAAAAAAAAAAAAAAACARySfTg7VauzP4eSQ++/1z49f7E6EfPeW8bGzzb7Y/r3uRwi1vyxfGPWuWNbifH277p8wfsWF2S/L9nYFWDcXBqnF2RO7YFaVFgUoV+TKAIoTfr8s+7AowK0P1rA3VP4WeuWPeQHmm9a1zLUYRjDLjQtQVp2LWRWDNNHs/WwuuOq5nrGhTltJb/avE292M/MCzLs1yKqYK8lWC/Ofnomi3QdruBqqMs5PmRK1oFTuogd+xRNN3mYAY6I4Uqdn9abA0lDJj/bCkZ4l6jCxGI3YFZekBv1Ts4aEajfBlqJ/Q31t0nryTssedZhY3P6VV/E7KYvbOxdF1SfI21A/eTu1HWoffCZ/YazFRZNO/HGiHKjBK3yK+zqVt7lXaR1Q++Bz669sDXXL8ju5MF/fE+Srxfc6jVePwrpQdMbBNoqi8/JU+XYvj4CooVp/5lTRZjKtkDdrF3FvNOqMvttEvyDh1k/XnIQMh4cJyjP5PxvXrGQMy55QrQsVzH675iVieH+YqFnQ/1Q5ZyZhOBSqqSg1WBXOuQkY6oeJK4rg2iMaiW94L1T7RhFcudeggGHRO11qo/TBrdfCQ2zDuf1d1KeJjqIbOvTBynNGENewPFoLevXBK1ENC4NYtD0O+gpGNeyuqvXB2QevRDR0CNWODLPyeIZmfVBpoiuO9elohnP7gX7t3QevxDIUGCZuRDI0mdFzDxM34hgW9n3QL1QjRDGMH6oRYhj2bb50UQS3fIu3EQz7N1/aqH2QcRszvKFIqEYIbigTqhFCGzrM6I+cNRjc0KwPKk30yPwoQVhDl2GCtwYDG8qFaoSQhoKhGiGgoWSoRghnKD5M3AhmKBuqEUIZCodqhECGZjP6cKEaIYxhYb0BGqYPXgliGHvz5S4hDB02X7hDNUIAQ9EZfRd+wyRCNQK7ocTmy124DV1m9GGfvGY2TCVUI/AaCm2+3IXV0GFGHyhUI3AaOmy+hArVCIyGLsOE+atfzvAZOszox+FrkNGwsH9WLcSMvguXYWKhGoHJMJkZfRcew3Rm9F1YDENvvog/12b/SHO2MW+i+Z+Pau/yAYr6egbDoJsv568rrD9A0cBgqLyCajRM2PTB+n0Q51r0Nyysa9Bm82VWX+T8bqS/4cla0GaY2NVXjR2Lx2A4sxS0C9UmSRmGmNGnZTjwHr9XqJaW4bL3736h2gMYqn3QOjpJ39B38yV5Q7UPOszoUzf0X/hN3JBh8yVtQ44ZfdKGLJsvKRvybL4kbMi0qpaW4XTZcFYEPVbV0jIcwmdV7SEM7UM1wiMY+m2+PICh5+ZL+oa+my8pGC771b7w3nxJwXDU98nDGxYLvwMkYfjZb5exPCeThOHo89gv+MKw+ZKG4X99cdblxLLBm4phOGCoB4bSwFAPDKWBoR4YSgNDPTCUBoZ6YCgNDPXAUBoY6oGhNDDUA0NpYKgHhtLAUA8MpYGhHhhKA0M9MJQGhnpgKA0M9fz/DcXOXTOkOU575ZyE2Nl5ZjQnr7kfaSV3/qERzbv+7ufcCp5hacC5Lp3HJwckzyHVs2MonehZslrGTek8nsZt0pA4D1jDdwPbeqQie6bzXcix9j5jmfC53HcoyVdhvG6DwmerD1KSgl28UqKf7vgR69tGenL66amBzzWYonxgJpUxQ3mBceKZWE4Ty7YLzx+MgfNuTIvkHHU3tF/O2uxfJ3JcDlWrPP0f3LBikqXM0JeZrLjo8xHDPSJ9EEUmwXQbKksT/eL0pM8uOmOGm8w3RXot1Xcc7LB80WcakUuIgTnfvetzjsJ2EWzNYT6dHKrVWI7V+rCbphMfAwAAAAAAAAAAAAAAAAAA2PAvC11MaAQi4rQAAAAASUVORK5CYII=;" vertex="1" parent="1">
          <mxGeometry x="730" y="423.75" width="100" height="97.5" as="geometry" />
        </mxCell>
        <mxCell id="P5UNxQXMZzQfNUnJOh3o-7" value="" style="shape=image;html=1;verticalLabelPosition=bottom;verticalAlign=top;imageAspect=0;image=data:image/png,iVBORw0KGgoAAAANSUhEUgAAAOEAAADhCAMAAAAJbSJIAAAAclBMVEX///8AAAAwMDCWlpYUFBTx8fHAwMDMzMz09PSvr6+ysrL29vbg4OA3NzdFRUX8/PxCQkJISEg9PT2goKBcXFxUVFRubm5kZGQ5OTl1dXWLi4sgICDPz8/n5+cuLi64uLiCgoKlpaWOjo4nJydPT0/Z2dmogUypAAAFpUlEQVR4nO2da3vaOBBGMcRcYsAGukASaGmT/P+/uEuDnZEv6DbSiH3e87GpJR0kWSPJtkYjAAAAAAAAAAAAAAAAAACARySfTg7VauzP4eSQ++/1z49f7E6EfPeW8bGzzb7Y/r3uRwi1vyxfGPWuWNbifH277p8wfsWF2S/L9nYFWDcXBqnF2RO7YFaVFgUoV+TKAIoTfr8s+7AowK0P1rA3VP4WeuWPeQHmm9a1zLUYRjDLjQtQVp2LWRWDNNHs/WwuuOq5nrGhTltJb/avE292M/MCzLs1yKqYK8lWC/Ofnomi3QdruBqqMs5PmRK1oFTuogd+xRNN3mYAY6I4Uqdn9abA0lDJj/bCkZ4l6jCxGI3YFZekBv1Ts4aEajfBlqJ/Q31t0nryTssedZhY3P6VV/E7KYvbOxdF1SfI21A/eTu1HWoffCZ/YazFRZNO/HGiHKjBK3yK+zqVt7lXaR1Q++Bz669sDXXL8ju5MF/fE+Srxfc6jVePwrpQdMbBNoqi8/JU+XYvj4CooVp/5lTRZjKtkDdrF3FvNOqMvttEvyDh1k/XnIQMh4cJyjP5PxvXrGQMy55QrQsVzH675iVieH+YqFnQ/1Q5ZyZhOBSqqSg1WBXOuQkY6oeJK4rg2iMaiW94L1T7RhFcudeggGHRO11qo/TBrdfCQ2zDuf1d1KeJjqIbOvTBynNGENewPFoLevXBK1ENC4NYtD0O+gpGNeyuqvXB2QevRDR0CNWODLPyeIZmfVBpoiuO9elohnP7gX7t3QevxDIUGCZuRDI0mdFzDxM34hgW9n3QL1QjRDGMH6oRYhj2bb50UQS3fIu3EQz7N1/aqH2QcRszvKFIqEYIbigTqhFCGzrM6I+cNRjc0KwPKk30yPwoQVhDl2GCtwYDG8qFaoSQhoKhGiGgoWSoRghnKD5M3AhmKBuqEUIZCodqhECGZjP6cKEaIYxhYb0BGqYPXgliGHvz5S4hDB02X7hDNUIAQ9EZfRd+wyRCNQK7ocTmy124DV1m9GGfvGY2TCVUI/AaCm2+3IXV0GFGHyhUI3AaOmy+hArVCIyGLsOE+atfzvAZOszox+FrkNGwsH9WLcSMvguXYWKhGoHJMJkZfRcew3Rm9F1YDENvvog/12b/SHO2MW+i+Z+Pau/yAYr6egbDoJsv568rrD9A0cBgqLyCajRM2PTB+n0Q51r0Nyysa9Bm82VWX+T8bqS/4cla0GaY2NVXjR2Lx2A4sxS0C9UmSRmGmNGnZTjwHr9XqJaW4bL3736h2gMYqn3QOjpJ39B38yV5Q7UPOszoUzf0X/hN3JBh8yVtQ44ZfdKGLJsvKRvybL4kbMi0qpaW4XTZcFYEPVbV0jIcwmdV7SEM7UM1wiMY+m2+PICh5+ZL+oa+my8pGC771b7w3nxJwXDU98nDGxYLvwMkYfjZb5exPCeThOHo89gv+MKw+ZKG4X99cdblxLLBm4phOGCoB4bSwFAPDKWBoR4YSgNDPTCUBoZ6YCgNDPXAUBoY6oGhNDDUA0NpYKgHhtLAUA8MpYGhHhhKA0M9MJQGhnpgKA0M9fz/DcXOXTOkOU575ZyE2Nl5ZjQnr7kfaSV3/qERzbv+7ufcCp5hacC5Lp3HJwckzyHVs2MonehZslrGTek8nsZt0pA4D1jDdwPbeqQie6bzXcix9j5jmfC53HcoyVdhvG6DwmerD1KSgl28UqKf7vgR69tGenL66amBzzWYonxgJpUxQ3mBceKZWE4Ty7YLzx+MgfNuTIvkHHU3tF/O2uxfJ3JcDlWrPP0f3LBikqXM0JeZrLjo8xHDPSJ9EEUmwXQbKksT/eL0pM8uOmOGm8w3RXot1Xcc7LB80WcakUuIgTnfvetzjsJ2EWzNYT6dHKrVWI7V+rCbphMfAwAAAAAAAAAAAAAAAAAA2PAvC11MaAQi4rQAAAAASUVORK5CYII=;" vertex="1" parent="1">
          <mxGeometry x="730" y="626.25" width="100" height="97.5" as="geometry" />
        </mxCell>
        <mxCell id="P5UNxQXMZzQfNUnJOh3o-8" value="" style="ellipse;shape=doubleEllipse;whiteSpace=wrap;html=1;aspect=fixed;" vertex="1" parent="1">
          <mxGeometry x="40" y="600" width="150" height="150" as="geometry" />
        </mxCell>
        <mxCell id="P5UNxQXMZzQfNUnJOh3o-9" value="" style="ellipse;shape=doubleEllipse;whiteSpace=wrap;html=1;aspect=fixed;" vertex="1" parent="1">
          <mxGeometry x="40" y="390" width="150" height="150" as="geometry" />
        </mxCell>
        <mxCell id="P5UNxQXMZzQfNUnJOh3o-10" value="" style="shape=actor;whiteSpace=wrap;html=1;" vertex="1" parent="1">
          <mxGeometry x="80" y="650" width="70" height="90" as="geometry" />
        </mxCell>
        <mxCell id="P5UNxQXMZzQfNUnJOh3o-11" value="" style="shape=actor;whiteSpace=wrap;html=1;" vertex="1" parent="1">
          <mxGeometry x="80" y="435" width="70" height="90" as="geometry" />
        </mxCell>
      </root>
    </mxGraphModel>
  </diagram>
  <diagram id="iXo8hGQ0G4x774UsUw59" name="PÃ¡gina-2">
    <mxGraphModel dx="2390" dy="1303" grid="1" gridSize="10" guides="1" tooltips="1" connect="1" arrows="1" fold="1" page="1" pageScale="1" pageWidth="900" pageHeight="1600" math="0" shadow="0">
      <root>
        <mxCell id="0" />
        <mxCell id="1" parent="0" />
        <mxCell id="xsEshQzEljHopx_LnpRR-1" value="LAYOUT DE CADASTRO DE CLIENTES" style="text;strokeColor=none;fillColor=none;html=1;fontSize=24;fontStyle=1;verticalAlign=middle;align=center;" vertex="1" parent="1">
          <mxGeometry x="210" y="20" width="480" height="40" as="geometry" />
        </mxCell>
        <mxCell id="xsEshQzEljHopx_LnpRR-2" value="CARLOS PEREIRA&amp;nbsp;" style="text;strokeColor=none;fillColor=none;html=1;fontSize=24;fontStyle=1;verticalAlign=middle;align=center;" vertex="1" parent="1">
          <mxGeometry x="180" y="232.19" width="250" height="55" as="geometry" />
        </mxCell>
        <mxCell id="xsEshQzEljHopx_LnpRR-3" value="PEDRO VASCONCILOS" style="text;strokeColor=none;fillColor=none;html=1;fontSize=24;fontStyle=1;verticalAlign=middle;align=center;" vertex="1" parent="1">
          <mxGeometry x="200" y="441.88" width="270" height="40" as="geometry" />
        </mxCell>
        <mxCell id="xsEshQzEljHopx_LnpRR-4" value="AMANDAS JOSLENE" style="text;strokeColor=none;fillColor=none;html=1;fontSize=24;fontStyle=1;verticalAlign=middle;align=center;" vertex="1" parent="1">
          <mxGeometry x="180" y="640" width="280" height="40" as="geometry" />
        </mxCell>
        <mxCell id="xsEshQzEljHopx_LnpRR-5" value="" style="shape=image;html=1;verticalLabelPosition=bottom;verticalAlign=top;imageAspect=1;aspect=fixed;image=https://thumbs.dreamstime.com/b/%C3%ADcone-da-lupa-lente-de-aumento-do-vetor-ou-sinal-128227165.jpg;" vertex="1" parent="1">
          <mxGeometry x="60" y="90" width="61" height="61" as="geometry" />
        </mxCell>
        <mxCell id="xsEshQzEljHopx_LnpRR-8" value="" style="rounded=1;whiteSpace=wrap;html=1;" vertex="1" parent="1">
          <mxGeometry x="127.5" y="100.5" width="702.5" height="40" as="geometry" />
        </mxCell>
        <mxCell id="xsEshQzEljHopx_LnpRR-9" value="" style="shape=image;html=1;verticalLabelPosition=bottom;verticalAlign=top;imageAspect=0;image=data:image/png,iVBORw0KGgoAAAANSUhEUgAAAOEAAADhCAMAAAAJbSJIAAAAclBMVEX///8AAAAwMDCWlpYUFBTx8fHAwMDMzMz09PSvr6+ysrL29vbg4OA3NzdFRUX8/PxCQkJISEg9PT2goKBcXFxUVFRubm5kZGQ5OTl1dXWLi4sgICDPz8/n5+cuLi64uLiCgoKlpaWOjo4nJydPT0/Z2dmogUypAAAFpUlEQVR4nO2da3vaOBBGMcRcYsAGukASaGmT/P+/uEuDnZEv6DbSiH3e87GpJR0kWSPJtkYjAAAAAAAAAAAAAAAAAACARySfTg7VauzP4eSQ++/1z49f7E6EfPeW8bGzzb7Y/r3uRwi1vyxfGPWuWNbifH277p8wfsWF2S/L9nYFWDcXBqnF2RO7YFaVFgUoV+TKAIoTfr8s+7AowK0P1rA3VP4WeuWPeQHmm9a1zLUYRjDLjQtQVp2LWRWDNNHs/WwuuOq5nrGhTltJb/avE292M/MCzLs1yKqYK8lWC/Ofnomi3QdruBqqMs5PmRK1oFTuogd+xRNN3mYAY6I4Uqdn9abA0lDJj/bCkZ4l6jCxGI3YFZekBv1Ts4aEajfBlqJ/Q31t0nryTssedZhY3P6VV/E7KYvbOxdF1SfI21A/eTu1HWoffCZ/YazFRZNO/HGiHKjBK3yK+zqVt7lXaR1Q++Bz669sDXXL8ju5MF/fE+Srxfc6jVePwrpQdMbBNoqi8/JU+XYvj4CooVp/5lTRZjKtkDdrF3FvNOqMvttEvyDh1k/XnIQMh4cJyjP5PxvXrGQMy55QrQsVzH675iVieH+YqFnQ/1Q5ZyZhOBSqqSg1WBXOuQkY6oeJK4rg2iMaiW94L1T7RhFcudeggGHRO11qo/TBrdfCQ2zDuf1d1KeJjqIbOvTBynNGENewPFoLevXBK1ENC4NYtD0O+gpGNeyuqvXB2QevRDR0CNWODLPyeIZmfVBpoiuO9elohnP7gX7t3QevxDIUGCZuRDI0mdFzDxM34hgW9n3QL1QjRDGMH6oRYhj2bb50UQS3fIu3EQz7N1/aqH2QcRszvKFIqEYIbigTqhFCGzrM6I+cNRjc0KwPKk30yPwoQVhDl2GCtwYDG8qFaoSQhoKhGiGgoWSoRghnKD5M3AhmKBuqEUIZCodqhECGZjP6cKEaIYxhYb0BGqYPXgliGHvz5S4hDB02X7hDNUIAQ9EZfRd+wyRCNQK7ocTmy124DV1m9GGfvGY2TCVUI/AaCm2+3IXV0GFGHyhUI3AaOmy+hArVCIyGLsOE+atfzvAZOszox+FrkNGwsH9WLcSMvguXYWKhGoHJMJkZfRcew3Rm9F1YDENvvog/12b/SHO2MW+i+Z+Pau/yAYr6egbDoJsv568rrD9A0cBgqLyCajRM2PTB+n0Q51r0Nyysa9Bm82VWX+T8bqS/4cla0GaY2NVXjR2Lx2A4sxS0C9UmSRmGmNGnZTjwHr9XqJaW4bL3736h2gMYqn3QOjpJ39B38yV5Q7UPOszoUzf0X/hN3JBh8yVtQ44ZfdKGLJsvKRvybL4kbMi0qpaW4XTZcFYEPVbV0jIcwmdV7SEM7UM1wiMY+m2+PICh5+ZL+oa+my8pGC771b7w3nxJwXDU98nDGxYLvwMkYfjZb5exPCeThOHo89gv+MKw+ZKG4X99cdblxLLBm4phOGCoB4bSwFAPDKWBoR4YSgNDPTCUBoZ6YCgNDPXAUBoY6oGhNDDUA0NpYKgHhtLAUA8MpYGhHhhKA0M9MJQGhnpgKA0M9fz/DcXOXTOkOU575ZyE2Nl5ZjQnr7kfaSV3/qERzbv+7ufcCp5hacC5Lp3HJwckzyHVs2MonehZslrGTek8nsZt0pA4D1jDdwPbeqQie6bzXcix9j5jmfC53HcoyVdhvG6DwmerD1KSgl28UqKf7vgR69tGenL66amBzzWYonxgJpUxQ3mBceKZWE4Ty7YLzx+MgfNuTIvkHHU3tF/O2uxfJ3JcDlWrPP0f3LBikqXM0JeZrLjo8xHDPSJ9EEUmwXQbKksT/eL0pM8uOmOGm8w3RXot1Xcc7LB80WcakUuIgTnfvetzjsJ2EWzNYT6dHKrVWI7V+rCbphMfAwAAAAAAAAAAAAAAAAAA2PAvC11MaAQi4rQAAAAASUVORK5CYII=;" vertex="1" parent="1">
          <mxGeometry x="710" y="214.69" width="100" height="95" as="geometry" />
        </mxCell>
        <mxCell id="xsEshQzEljHopx_LnpRR-10" value="" style="shape=image;html=1;verticalLabelPosition=bottom;verticalAlign=top;imageAspect=0;image=data:image/png,iVBORw0KGgoAAAANSUhEUgAAAOEAAADhCAMAAAAJbSJIAAAAclBMVEX///8AAAAwMDCWlpYUFBTx8fHAwMDMzMz09PSvr6+ysrL29vbg4OA3NzdFRUX8/PxCQkJISEg9PT2goKBcXFxUVFRubm5kZGQ5OTl1dXWLi4sgICDPz8/n5+cuLi64uLiCgoKlpaWOjo4nJydPT0/Z2dmogUypAAAFpUlEQVR4nO2da3vaOBBGMcRcYsAGukASaGmT/P+/uEuDnZEv6DbSiH3e87GpJR0kWSPJtkYjAAAAAAAAAAAAAAAAAACARySfTg7VauzP4eSQ++/1z49f7E6EfPeW8bGzzb7Y/r3uRwi1vyxfGPWuWNbifH277p8wfsWF2S/L9nYFWDcXBqnF2RO7YFaVFgUoV+TKAIoTfr8s+7AowK0P1rA3VP4WeuWPeQHmm9a1zLUYRjDLjQtQVp2LWRWDNNHs/WwuuOq5nrGhTltJb/avE292M/MCzLs1yKqYK8lWC/Ofnomi3QdruBqqMs5PmRK1oFTuogd+xRNN3mYAY6I4Uqdn9abA0lDJj/bCkZ4l6jCxGI3YFZekBv1Ts4aEajfBlqJ/Q31t0nryTssedZhY3P6VV/E7KYvbOxdF1SfI21A/eTu1HWoffCZ/YazFRZNO/HGiHKjBK3yK+zqVt7lXaR1Q++Bz669sDXXL8ju5MF/fE+Srxfc6jVePwrpQdMbBNoqi8/JU+XYvj4CooVp/5lTRZjKtkDdrF3FvNOqMvttEvyDh1k/XnIQMh4cJyjP5PxvXrGQMy55QrQsVzH675iVieH+YqFnQ/1Q5ZyZhOBSqqSg1WBXOuQkY6oeJK4rg2iMaiW94L1T7RhFcudeggGHRO11qo/TBrdfCQ2zDuf1d1KeJjqIbOvTBynNGENewPFoLevXBK1ENC4NYtD0O+gpGNeyuqvXB2QevRDR0CNWODLPyeIZmfVBpoiuO9elohnP7gX7t3QevxDIUGCZuRDI0mdFzDxM34hgW9n3QL1QjRDGMH6oRYhj2bb50UQS3fIu3EQz7N1/aqH2QcRszvKFIqEYIbigTqhFCGzrM6I+cNRjc0KwPKk30yPwoQVhDl2GCtwYDG8qFaoSQhoKhGiGgoWSoRghnKD5M3AhmKBuqEUIZCodqhECGZjP6cKEaIYxhYb0BGqYPXgliGHvz5S4hDB02X7hDNUIAQ9EZfRd+wyRCNQK7ocTmy124DV1m9GGfvGY2TCVUI/AaCm2+3IXV0GFGHyhUI3AaOmy+hArVCIyGLsOE+atfzvAZOszox+FrkNGwsH9WLcSMvguXYWKhGoHJMJkZfRcew3Rm9F1YDENvvog/12b/SHO2MW+i+Z+Pau/yAYr6egbDoJsv568rrD9A0cBgqLyCajRM2PTB+n0Q51r0Nyysa9Bm82VWX+T8bqS/4cla0GaY2NVXjR2Lx2A4sxS0C9UmSRmGmNGnZTjwHr9XqJaW4bL3736h2gMYqn3QOjpJ39B38yV5Q7UPOszoUzf0X/hN3JBh8yVtQ44ZfdKGLJsvKRvybL4kbMi0qpaW4XTZcFYEPVbV0jIcwmdV7SEM7UM1wiMY+m2+PICh5+ZL+oa+my8pGC771b7w3nxJwXDU98nDGxYLvwMkYfjZb5exPCeThOHo89gv+MKw+ZKG4X99cdblxLLBm4phOGCoB4bSwFAPDKWBoR4YSgNDPTCUBoZ6YCgNDPXAUBoY6oGhNDDUA0NpYKgHhtLAUA8MpYGhHhhKA0M9MJQGhnpgKA0M9fz/DcXOXTOkOU575ZyE2Nl5ZjQnr7kfaSV3/qERzbv+7ufcCp5hacC5Lp3HJwckzyHVs2MonehZslrGTek8nsZt0pA4D1jDdwPbeqQie6bzXcix9j5jmfC53HcoyVdhvG6DwmerD1KSgl28UqKf7vgR69tGenL66amBzzWYonxgJpUxQ3mBceKZWE4Ty7YLzx+MgfNuTIvkHHU3tF/O2uxfJ3JcDlWrPP0f3LBikqXM0JeZrLjo8xHDPSJ9EEUmwXQbKksT/eL0pM8uOmOGm8w3RXot1Xcc7LB80WcakUuIgTnfvetzjsJ2EWzNYT6dHKrVWI7V+rCbphMfAwAAAAAAAAAAAAAAAAAA2PAvC11MaAQi4rQAAAAASUVORK5CYII=;" vertex="1" parent="1">
          <mxGeometry x="710" y="416.88" width="100" height="97.5" as="geometry" />
        </mxCell>
        <mxCell id="xsEshQzEljHopx_LnpRR-11" value="" style="shape=image;html=1;verticalLabelPosition=bottom;verticalAlign=top;imageAspect=0;image=data:image/png,iVBORw0KGgoAAAANSUhEUgAAAOEAAADhCAMAAAAJbSJIAAAAclBMVEX///8AAAAwMDCWlpYUFBTx8fHAwMDMzMz09PSvr6+ysrL29vbg4OA3NzdFRUX8/PxCQkJISEg9PT2goKBcXFxUVFRubm5kZGQ5OTl1dXWLi4sgICDPz8/n5+cuLi64uLiCgoKlpaWOjo4nJydPT0/Z2dmogUypAAAFpUlEQVR4nO2da3vaOBBGMcRcYsAGukASaGmT/P+/uEuDnZEv6DbSiH3e87GpJR0kWSPJtkYjAAAAAAAAAAAAAAAAAACARySfTg7VauzP4eSQ++/1z49f7E6EfPeW8bGzzb7Y/r3uRwi1vyxfGPWuWNbifH277p8wfsWF2S/L9nYFWDcXBqnF2RO7YFaVFgUoV+TKAIoTfr8s+7AowK0P1rA3VP4WeuWPeQHmm9a1zLUYRjDLjQtQVp2LWRWDNNHs/WwuuOq5nrGhTltJb/avE292M/MCzLs1yKqYK8lWC/Ofnomi3QdruBqqMs5PmRK1oFTuogd+xRNN3mYAY6I4Uqdn9abA0lDJj/bCkZ4l6jCxGI3YFZekBv1Ts4aEajfBlqJ/Q31t0nryTssedZhY3P6VV/E7KYvbOxdF1SfI21A/eTu1HWoffCZ/YazFRZNO/HGiHKjBK3yK+zqVt7lXaR1Q++Bz669sDXXL8ju5MF/fE+Srxfc6jVePwrpQdMbBNoqi8/JU+XYvj4CooVp/5lTRZjKtkDdrF3FvNOqMvttEvyDh1k/XnIQMh4cJyjP5PxvXrGQMy55QrQsVzH675iVieH+YqFnQ/1Q5ZyZhOBSqqSg1WBXOuQkY6oeJK4rg2iMaiW94L1T7RhFcudeggGHRO11qo/TBrdfCQ2zDuf1d1KeJjqIbOvTBynNGENewPFoLevXBK1ENC4NYtD0O+gpGNeyuqvXB2QevRDR0CNWODLPyeIZmfVBpoiuO9elohnP7gX7t3QevxDIUGCZuRDI0mdFzDxM34hgW9n3QL1QjRDGMH6oRYhj2bb50UQS3fIu3EQz7N1/aqH2QcRszvKFIqEYIbigTqhFCGzrM6I+cNRjc0KwPKk30yPwoQVhDl2GCtwYDG8qFaoSQhoKhGiGgoWSoRghnKD5M3AhmKBuqEUIZCodqhECGZjP6cKEaIYxhYb0BGqYPXgliGHvz5S4hDB02X7hDNUIAQ9EZfRd+wyRCNQK7ocTmy124DV1m9GGfvGY2TCVUI/AaCm2+3IXV0GFGHyhUI3AaOmy+hArVCIyGLsOE+atfzvAZOszox+FrkNGwsH9WLcSMvguXYWKhGoHJMJkZfRcew3Rm9F1YDENvvog/12b/SHO2MW+i+Z+Pau/yAYr6egbDoJsv568rrD9A0cBgqLyCajRM2PTB+n0Q51r0Nyysa9Bm82VWX+T8bqS/4cla0GaY2NVXjR2Lx2A4sxS0C9UmSRmGmNGnZTjwHr9XqJaW4bL3736h2gMYqn3QOjpJ39B38yV5Q7UPOszoUzf0X/hN3JBh8yVtQ44ZfdKGLJsvKRvybL4kbMi0qpaW4XTZcFYEPVbV0jIcwmdV7SEM7UM1wiMY+m2+PICh5+ZL+oa+my8pGC771b7w3nxJwXDU98nDGxYLvwMkYfjZb5exPCeThOHo89gv+MKw+ZKG4X99cdblxLLBm4phOGCoB4bSwFAPDKWBoR4YSgNDPTCUBoZ6YCgNDPXAUBoY6oGhNDDUA0NpYKgHhtLAUA8MpYGhHhhKA0M9MJQGhnpgKA0M9fz/DcXOXTOkOU575ZyE2Nl5ZjQnr7kfaSV3/qERzbv+7ufcCp5hacC5Lp3HJwckzyHVs2MonehZslrGTek8nsZt0pA4D1jDdwPbeqQie6bzXcix9j5jmfC53HcoyVdhvG6DwmerD1KSgl28UqKf7vgR69tGenL66amBzzWYonxgJpUxQ3mBceKZWE4Ty7YLzx+MgfNuTIvkHHU3tF/O2uxfJ3JcDlWrPP0f3LBikqXM0JeZrLjo8xHDPSJ9EEUmwXQbKksT/eL0pM8uOmOGm8w3RXot1Xcc7LB80WcakUuIgTnfvetzjsJ2EWzNYT6dHKrVWI7V+rCbphMfAwAAAAAAAAAAAAAAAAAA2PAvC11MaAQi4rQAAAAASUVORK5CYII=;" vertex="1" parent="1">
          <mxGeometry x="720" y="615" width="100" height="95" as="geometry" />
        </mxCell>
        <mxCell id="xsEshQzEljHopx_LnpRR-12" value="" style="ellipse;shape=doubleEllipse;whiteSpace=wrap;html=1;aspect=fixed;" vertex="1" parent="1">
          <mxGeometry x="40" y="402.5" width="118.75" height="118.75" as="geometry" />
        </mxCell>
        <mxCell id="xsEshQzEljHopx_LnpRR-14" value="" style="shape=actor;whiteSpace=wrap;html=1;" vertex="1" parent="1">
          <mxGeometry x="65.31" y="416.88" width="70" height="90" as="geometry" />
        </mxCell>
        <mxCell id="xsEshQzEljHopx_LnpRR-15" value="" style="ellipse;shape=doubleEllipse;whiteSpace=wrap;html=1;aspect=fixed;" vertex="1" parent="1">
          <mxGeometry x="40" y="600" width="120" height="120" as="geometry" />
        </mxCell>
        <mxCell id="xsEshQzEljHopx_LnpRR-17" value="" style="ellipse;shape=doubleEllipse;whiteSpace=wrap;html=1;aspect=fixed;" vertex="1" parent="1">
          <mxGeometry x="40" y="199.38" width="120.62" height="120.62" as="geometry" />
        </mxCell>
        <mxCell id="xsEshQzEljHopx_LnpRR-19" value="" style="shape=actor;whiteSpace=wrap;html=1;" vertex="1" parent="1">
          <mxGeometry x="65.31" y="615" width="70" height="90" as="geometry" />
        </mxCell>
        <mxCell id="xsEshQzEljHopx_LnpRR-20" value="" style="shape=actor;whiteSpace=wrap;html=1;" vertex="1" parent="1">
          <mxGeometry x="65.31" y="214.69" width="70" height="90" as="geometry" />
        </mxCell>
      </root>
    </mxGraphModel>
  </diagram>
</mxfile>
